<svg width="8555" height="1297" viewBox="0 0 8555 1297" fill="none" xmlns="http://www.w3.org/2000/svg">
<rect x="421" y="1031" width="965" height="266" rx="53" fill="#811844"/>
<rect y="603" width="1083" height="266" rx="53" fill="#811844"/>
<rect x="211" y="175" width="1082" height="266" rx="53" fill="#811844"/>
<path d="M2324.15 1185.5C2257.85 1185.5 2198.05 1174.23 2144.75 1151.7C2091.88 1129.17 2048.12 1097.1 2013.45 1055.5C1979.22 1013.47 1956.9 963.85 1946.5 906.65L2066.1 887.8C2081.27 946.733 2112.68 992.883 2160.35 1026.25C2208.45 1059.18 2265 1075.65 2330 1075.65C2372.03 1075.65 2409.95 1069.15 2443.75 1056.15C2477.98 1042.72 2505.07 1023.65 2525 998.95C2544.93 974.25 2554.9 945 2554.9 911.2C2554.9 890.4 2551.22 872.633 2543.85 857.9C2536.92 842.733 2527.17 829.95 2514.6 819.55C2502.47 808.717 2488.6 799.617 2473 792.25C2457.4 784.883 2441.15 778.817 2424.25 774.05L2185.7 703.2C2159.7 695.4 2134.57 685.65 2110.3 673.95C2086.03 661.817 2064.37 646.867 2045.3 629.1C2026.23 610.9 2011.07 589.233 1999.8 564.1C1988.53 538.533 1982.9 508.417 1982.9 473.75C1982.9 418.283 1997.2 371.05 2025.8 332.05C2054.83 292.617 2094.05 262.5 2143.45 241.7C2192.85 220.9 2248.53 210.717 2310.5 211.15C2373.33 211.583 2429.45 222.85 2478.85 244.95C2528.68 266.617 2569.85 297.817 2602.35 338.55C2635.28 379.283 2657.38 428.033 2668.65 484.8L2545.8 506.25C2539.3 468.117 2524.78 435.4 2502.25 408.1C2480.15 380.367 2452.42 359.133 2419.05 344.4C2385.68 329.233 2349.07 321.433 2309.2 321C2271.07 320.567 2236.62 326.633 2205.85 339.2C2175.08 351.767 2150.6 369.317 2132.4 391.85C2114.2 413.95 2105.1 439.517 2105.1 468.55C2105.1 497.15 2113.33 520.333 2129.8 538.1C2146.27 555.433 2166.42 569.3 2190.25 579.7C2214.52 589.667 2238.13 597.9 2261.1 604.4L2439.2 655.75C2459.57 661.383 2482.97 669.183 2509.4 679.15C2536.27 689.117 2562.27 703.2 2587.4 721.4C2612.53 739.167 2633.33 763 2649.8 792.9C2666.27 822.367 2674.5 859.633 2674.5 904.7C2674.5 949.767 2665.4 989.85 2647.2 1024.95C2629.43 1060.05 2604.52 1089.52 2572.45 1113.35C2540.38 1136.75 2503.12 1154.52 2460.65 1166.65C2418.18 1179.22 2372.68 1185.5 2324.15 1185.5ZM3202.8 1166C3161.2 1174.23 3120.03 1177.48 3079.3 1175.75C3039 1174.45 3003.03 1166.43 2971.4 1151.7C2939.76 1136.53 2915.71 1113.13 2899.25 1081.5C2885.38 1053.77 2877.8 1025.82 2876.5 997.65C2875.63 969.05 2875.2 936.767 2875.2 900.8V269H2990.9V895.6C2990.9 924.2 2991.11 948.683 2991.55 969.05C2992.41 989.417 2996.96 1006.97 3005.2 1021.7C3020.8 1049.43 3045.5 1065.68 3079.3 1070.45C3113.53 1075.22 3154.7 1073.92 3202.8 1066.55V1166ZM2732.85 559.55V464H3202.8V559.55H2732.85ZM3345.32 1166V464H3448.67V633.65L3431.77 611.55C3440 589.883 3450.62 569.95 3463.62 551.75C3477.05 533.55 3492 518.6 3508.47 506.9C3526.67 492.167 3547.25 480.9 3570.22 473.1C3593.19 465.3 3616.59 460.75 3640.42 459.45C3664.25 457.717 3686.57 459.233 3707.37 464V572.55C3683.1 566.05 3656.45 564.317 3627.42 567.35C3598.39 570.383 3571.52 581 3546.82 599.2C3524.29 615.233 3506.74 634.733 3494.17 657.7C3482.04 680.667 3473.59 705.583 3468.82 732.45C3464.05 758.883 3461.67 785.967 3461.67 813.7V1166H3345.32ZM4121.79 1185.5C4052.89 1185.5 3992.65 1170.33 3941.09 1140C3889.95 1109.23 3850.09 1066.55 3821.49 1011.95C3792.89 956.917 3778.59 892.783 3778.59 819.55C3778.59 742.85 3792.67 676.55 3820.84 620.65C3849 564.317 3888.22 520.983 3938.49 490.65C3989.19 459.883 4048.55 444.5 4116.59 444.5C4187.22 444.5 4247.24 460.75 4296.64 493.25C4346.47 525.75 4383.74 572.117 4408.44 632.35C4433.57 692.583 4444.4 764.3 4440.94 847.5H4323.94V805.9C4322.64 719.667 4305.09 655.317 4271.29 612.85C4237.49 569.95 4187.22 548.5 4120.49 548.5C4048.99 548.5 3994.6 571.467 3957.34 617.4C3920.07 663.333 3901.44 729.2 3901.44 815C3901.44 897.767 3920.07 961.9 3957.34 1007.4C3994.6 1052.9 4047.69 1075.65 4116.59 1075.65C4162.95 1075.65 4203.25 1065.03 4237.49 1043.8C4271.72 1022.57 4298.59 992.017 4318.09 952.15L4429.24 990.5C4401.94 1052.47 4360.77 1100.57 4305.74 1134.8C4251.14 1168.6 4189.82 1185.5 4121.79 1185.5ZM3862.44 847.5V754.55H4381.14V847.5H3862.44ZM4772.51 1185.5C4720.07 1185.5 4676.09 1175.97 4640.56 1156.9C4605.46 1137.4 4578.81 1111.83 4560.61 1080.2C4542.84 1048.57 4533.96 1013.9 4533.96 976.2C4533.96 939.367 4540.89 907.517 4554.76 880.65C4569.06 853.35 4588.99 830.817 4614.56 813.05C4640.12 794.85 4670.67 780.55 4706.21 770.15C4739.57 761.05 4776.84 753.25 4818.01 746.75C4859.61 739.817 4901.64 733.533 4944.11 727.9C4986.57 722.267 5026.22 716.85 5063.06 711.65L5021.46 735.7C5022.76 673.3 5010.19 627.15 4983.76 597.25C4957.76 567.35 4912.69 552.4 4848.56 552.4C4806.09 552.4 4768.82 562.15 4736.76 581.65C4705.12 600.717 4682.81 631.917 4669.81 675.25L4559.96 642.1C4576.86 580.567 4609.57 532.25 4658.11 497.15C4706.64 462.05 4770.56 444.5 4849.86 444.5C4913.56 444.5 4968.16 455.983 5013.66 478.95C5059.59 501.483 5092.52 535.717 5112.46 581.65C5122.42 603.317 5128.71 626.933 5131.31 652.5C5133.91 677.633 5135.21 704.067 5135.21 731.8V1166H5032.51V997.65L5056.56 1013.25C5030.12 1070.02 4993.07 1112.92 4945.41 1141.95C4898.17 1170.98 4840.54 1185.5 4772.51 1185.5ZM4790.06 1088.65C4831.66 1088.65 4867.62 1081.28 4897.96 1066.55C4928.72 1051.38 4953.42 1031.67 4972.06 1007.4C4990.69 982.7 5002.82 955.833 5008.46 926.8C5014.96 905.133 5018.42 881.083 5018.86 854.65C5019.72 827.783 5020.16 807.2 5020.16 792.9L5060.46 810.45C5022.76 815.65 4985.71 820.633 4949.31 825.4C4912.91 830.167 4878.46 835.367 4845.96 841C4813.46 846.2 4784.21 852.483 4758.21 859.85C4739.14 865.917 4721.16 873.717 4704.26 883.25C4687.79 892.783 4674.36 905.133 4663.96 920.3C4653.99 935.033 4649.01 953.45 4649.01 975.55C4649.01 994.617 4653.77 1012.82 4663.31 1030.15C4673.27 1047.48 4688.44 1061.57 4708.81 1072.4C4729.61 1083.23 4756.69 1088.65 4790.06 1088.65ZM6143.36 1166L6144.01 716.85C6144.01 664.417 6129.92 623.467 6101.76 594C6074.02 564.1 6037.84 549.15 5993.21 549.15C5967.21 549.15 5942.51 555.217 5919.11 567.35C5895.71 579.05 5876.64 597.683 5861.91 623.25C5847.17 648.383 5839.81 680.667 5839.81 720.1L5778.71 695.4C5777.84 645.567 5788.02 602.017 5809.26 564.75C5830.92 527.05 5860.39 497.8 5897.66 477C5934.92 456.2 5976.96 445.8 6023.76 445.8C6096.99 445.8 6154.62 468.117 6196.66 512.75C6238.69 556.95 6259.71 616.533 6259.71 691.5L6259.06 1166H6143.36ZM5303.56 1166V464H5406.91V651.85H5419.91V1166H5303.56ZM5724.11 1166L5724.76 721.4C5724.76 667.667 5710.89 625.633 5683.16 595.3C5655.42 564.533 5618.59 549.15 5572.66 549.15C5527.16 549.15 5490.32 564.75 5462.16 595.95C5433.99 627.15 5419.91 668.533 5419.91 720.1L5358.81 683.7C5358.81 638.2 5369.64 597.467 5391.31 561.5C5412.97 525.533 5442.44 497.367 5479.71 477C5516.97 456.2 5559.22 445.8 5606.46 445.8C5653.69 445.8 5694.86 455.767 5729.96 475.7C5765.06 495.633 5792.14 524.233 5811.21 561.5C5830.27 598.333 5839.81 642.317 5839.81 693.45L5839.16 1166H5724.11ZM6442.01 1166V210.5H6557.71V1166H6442.01ZM6765.74 339.85V220.25H6881.44V339.85H6765.74ZM6765.74 1166V464H6881.44V1166H6765.74ZM7576.32 1166V814.35C7576.32 780.983 7573.29 748.917 7567.22 718.15C7561.59 687.383 7551.41 659.867 7536.67 635.6C7522.37 610.9 7502.87 591.4 7478.17 577.1C7453.91 562.8 7423.14 555.65 7385.87 555.65C7356.84 555.65 7330.41 560.633 7306.57 570.6C7283.17 580.133 7263.02 594.867 7246.12 614.8C7229.22 634.733 7216.01 659.867 7206.47 690.2C7197.37 720.1 7192.82 755.417 7192.82 796.15L7116.77 772.75C7116.77 704.717 7128.91 646.433 7153.17 597.9C7177.87 548.933 7212.32 511.45 7256.52 485.45C7301.16 459.017 7353.59 445.8 7413.82 445.8C7459.32 445.8 7498.11 452.95 7530.17 467.25C7562.24 481.55 7588.89 500.617 7610.12 524.45C7631.36 547.85 7648.04 574.283 7660.17 603.75C7672.31 632.783 7680.76 662.467 7685.52 692.8C7690.72 722.7 7693.32 751.083 7693.32 777.95V1166H7576.32ZM7075.82 1166V464H7179.82V651.85H7192.82V1166H7075.82ZM8160.16 1185.5C8091.26 1185.5 8031.03 1170.33 7979.46 1140C7928.33 1109.23 7888.46 1066.55 7859.86 1011.95C7831.26 956.917 7816.96 892.783 7816.96 819.55C7816.96 742.85 7831.05 676.55 7859.21 620.65C7887.38 564.317 7926.6 520.983 7976.86 490.65C8027.56 459.883 8086.93 444.5 8154.96 444.5C8225.6 444.5 8285.61 460.75 8335.01 493.25C8384.85 525.75 8422.11 572.117 8446.81 632.35C8471.95 692.583 8482.78 764.3 8479.31 847.5H8362.31V805.9C8361.01 719.667 8343.46 655.317 8309.66 612.85C8275.86 569.95 8225.6 548.5 8158.86 548.5C8087.36 548.5 8032.98 571.467 7995.71 617.4C7958.45 663.333 7939.81 729.2 7939.81 815C7939.81 897.767 7958.45 961.9 7995.71 1007.4C8032.98 1052.9 8086.06 1075.65 8154.96 1075.65C8201.33 1075.65 8241.63 1065.03 8275.86 1043.8C8310.1 1022.57 8336.96 992.017 8356.46 952.15L8467.61 990.5C8440.31 1052.47 8399.15 1100.57 8344.11 1134.8C8289.51 1168.6 8228.2 1185.5 8160.16 1185.5ZM7900.81 847.5V754.55H8419.51V847.5H7900.81Z" fill="black"/>
</svg>
